<svg width="24" height="24" viewBox="0 0 24 24" fill="none" xmlns="http://www.w3.org/2000/svg">
<path d="M7.5 19H5C3.89543 19 3 18.1046 3 17V3C3 1.89543 3.89543 1 5 1H15.6716C16.202 1 16.7107 1.21071 17.0858 1.58579L20.4142 4.91421C20.7893 5.28929 21 5.79799 21 6.32843V17C21 18.1046 20.1046 19 19 19H16.5M7.5 19H12H16.5M7.5 19V15C7.5 13.8954 8.39543 13 9.5 13H14.5C15.6046 13 16.5 13.8954 16.5 15V19" stroke="#177164" stroke-linejoin="round"/>
<line x1="0.5" y1="-0.5" x2="9.5" y2="-0.5" transform="matrix(-1 0 0 1 17 8)" stroke="#177164" stroke-linecap="round"/>
</svg>
